<svg id="visual" viewBox="0 0 540 960" width="540" height="960" xmlns="http://www.w3.org/2000/svg" xmlns:xlink="http://www.w3.org/1999/xlink" version="1.1"><rect x="0" y="0" width="540" height="960" fill="#303841"></rect><defs><linearGradient id="grad1_0" x1="0%" y1="0%" x2="100%" y2="100%"><stop offset="30%" stop-color="#303841" stop-opacity="1"></stop><stop offset="70%" stop-color="#303841" stop-opacity="1"></stop></linearGradient></defs><defs><linearGradient id="grad2_0" x1="0%" y1="0%" x2="100%" y2="100%"><stop offset="30%" stop-color="#303841" stop-opacity="1"></stop><stop offset="70%" stop-color="#303841" stop-opacity="1"></stop></linearGradient></defs><g transform="translate(540, 0)"><path d="M0 243C-24.4 221.1 -48.7 199.3 -78.8 190.3C-109 181.4 -144.8 185.3 -171.1 171.1C-197.4 156.9 -214.1 124.5 -224.5 93C-234.9 61.4 -238.9 30.7 -243 0L0 0Z" fill="#f6c90e"></path></g><g transform="translate(0, 960)"><path d="M0 -243C26.3 -223.3 52.6 -203.7 79.2 -191.2C105.9 -178.8 132.9 -173.5 159.1 -159.1C185.3 -144.7 210.7 -121 224.5 -93C238.3 -64.9 240.7 -32.5 243 0L0 0Z" fill="#f6c90e"></path></g></svg>