<svg id="visual" viewBox="0 0 960 540" width="960" height="540" xmlns="http://www.w3.org/2000/svg" xmlns:xlink="http://www.w3.org/1999/xlink" version="1.1"><rect x="0" y="0" width="960" height="540" fill="#303841"></rect><path d="M0 330L11.5 325.8C23 321.7 46 313.3 68.8 318.2C91.7 323 114.3 341 137.2 349.5C160 358 183 357 205.8 356C228.7 355 251.3 354 274.2 360.5C297 367 320 381 342.8 386.2C365.7 391.3 388.3 387.7 411.2 374.5C434 361.3 457 338.7 480 338.3C503 338 526 360 548.8 371.3C571.7 382.7 594.3 383.3 617.2 385.5C640 387.7 663 391.3 685.8 382.5C708.7 373.7 731.3 352.3 754.2 351.7C777 351 800 371 822.8 378.7C845.7 386.3 868.3 381.7 891.2 384.3C914 387 937 397 948.5 402L960 407L960 0L948.5 0C937 0 914 0 891.2 0C868.3 0 845.7 0 822.8 0C800 0 777 0 754.2 0C731.3 0 708.7 0 685.8 0C663 0 640 0 617.2 0C594.3 0 571.7 0 548.8 0C526 0 503 0 480 0C457 0 434 0 411.2 0C388.3 0 365.7 0 342.8 0C320 0 297 0 274.2 0C251.3 0 228.7 0 205.8 0C183 0 160 0 137.2 0C114.3 0 91.7 0 68.8 0C46 0 23 0 11.5 0L0 0Z" fill="#2c3b47"></path><path d="M0 150L11.5 150.3C23 150.7 46 151.3 68.8 165.2C91.7 179 114.3 206 137.2 202.7C160 199.3 183 165.7 205.8 151.2C228.7 136.7 251.3 141.3 274.2 154C297 166.7 320 187.3 342.8 197.3C365.7 207.3 388.3 206.7 411.2 204.2C434 201.7 457 197.3 480 190.7C503 184 526 175 548.8 177.5C571.7 180 594.3 194 617.2 194.7C640 195.3 663 182.7 685.8 182.2C708.7 181.7 731.3 193.3 754.2 193.2C777 193 800 181 822.8 183.3C845.7 185.7 868.3 202.3 891.2 211.7C914 221 937 223 948.5 224L960 225L960 0L948.5 0C937 0 914 0 891.2 0C868.3 0 845.7 0 822.8 0C800 0 777 0 754.2 0C731.3 0 708.7 0 685.8 0C663 0 640 0 617.2 0C594.3 0 571.7 0 548.8 0C526 0 503 0 480 0C457 0 434 0 411.2 0C388.3 0 365.7 0 342.8 0C320 0 297 0 274.2 0C251.3 0 228.7 0 205.8 0C183 0 160 0 137.2 0C114.3 0 91.7 0 68.8 0C46 0 23 0 11.5 0L0 0Z" fill="#617584"></path></svg>