<svg id="visual" viewBox="0 0 960 540" width="960" height="540" xmlns="http://www.w3.org/2000/svg" xmlns:xlink="http://www.w3.org/1999/xlink" version="1.1"><rect x="0" y="0" width="960" height="540" fill="#303841"></rect><path d="M0 96L7 109.2C14 122.3 28 148.7 41.8 155.7C55.7 162.7 69.3 150.3 83.2 150.7C97 151 111 164 125 174.7C139 185.3 153 193.7 167 187.5C181 181.3 195 160.7 208.8 163.8C222.7 167 236.3 194 250.2 185.7C264 177.3 278 133.7 292 118.5C306 103.3 320 116.7 334 118.5C348 120.3 362 110.7 375.8 111.5C389.7 112.3 403.3 123.7 417.2 120.2C431 116.7 445 98.3 459 102.8C473 107.3 487 134.7 501 155.2C515 175.7 529 189.3 542.8 198C556.7 206.7 570.3 210.3 584.2 196.8C598 183.3 612 152.7 626 139C640 125.3 654 128.7 668 127.8C682 127 696 122 709.8 138C723.7 154 737.3 191 751.2 189.2C765 187.3 779 146.7 793 138.5C807 130.3 821 154.7 835 163.2C849 171.7 863 164.3 876.8 159C890.7 153.7 904.3 150.3 918.2 137.7C932 125 946 103 953 92L960 81L960 541L953 541C946 541 932 541 918.2 541C904.3 541 890.7 541 876.8 541C863 541 849 541 835 541C821 541 807 541 793 541C779 541 765 541 751.2 541C737.3 541 723.7 541 709.8 541C696 541 682 541 668 541C654 541 640 541 626 541C612 541 598 541 584.2 541C570.3 541 556.7 541 542.8 541C529 541 515 541 501 541C487 541 473 541 459 541C445 541 431 541 417.2 541C403.3 541 389.7 541 375.8 541C362 541 348 541 334 541C320 541 306 541 292 541C278 541 264 541 250.2 541C236.3 541 222.7 541 208.8 541C195 541 181 541 167 541C153 541 139 541 125 541C111 541 97 541 83.2 541C69.3 541 55.7 541 41.8 541C28 541 14 541 7 541L0 541Z" fill="#2c3b47"></path><path d="M0 246L7 240.8C14 235.7 28 225.3 41.8 219.7C55.7 214 69.3 213 83.2 208C97 203 111 194 125 201C139 208 153 231 167 237.7C181 244.3 195 234.7 208.8 232.2C222.7 229.7 236.3 234.3 250.2 240.7C264 247 278 255 292 243.5C306 232 320 201 334 204.2C348 207.3 362 244.7 375.8 259.5C389.7 274.3 403.3 266.7 417.2 244.7C431 222.7 445 186.3 459 171C473 155.7 487 161.3 501 160.8C515 160.3 529 153.7 542.8 172C556.7 190.3 570.3 233.7 584.2 252.8C598 272 612 267 626 248.7C640 230.3 654 198.7 668 191C682 183.3 696 199.7 709.8 207C723.7 214.3 737.3 212.7 751.2 211.3C765 210 779 209 793 204.7C807 200.3 821 192.7 835 196.5C849 200.3 863 215.7 876.8 222.8C890.7 230 904.3 229 918.2 216C932 203 946 178 953 165.5L960 153L960 541L953 541C946 541 932 541 918.2 541C904.3 541 890.7 541 876.8 541C863 541 849 541 835 541C821 541 807 541 793 541C779 541 765 541 751.2 541C737.3 541 723.7 541 709.8 541C696 541 682 541 668 541C654 541 640 541 626 541C612 541 598 541 584.2 541C570.3 541 556.7 541 542.8 541C529 541 515 541 501 541C487 541 473 541 459 541C445 541 431 541 417.2 541C403.3 541 389.7 541 375.8 541C362 541 348 541 334 541C320 541 306 541 292 541C278 541 264 541 250.2 541C236.3 541 222.7 541 208.8 541C195 541 181 541 167 541C153 541 139 541 125 541C111 541 97 541 83.2 541C69.3 541 55.7 541 41.8 541C28 541 14 541 7 541L0 541Z" fill="#324451"></path><path d="M0 275L7 271.3C14 267.7 28 260.3 41.8 269C55.7 277.7 69.3 302.3 83.2 304.7C97 307 111 287 125 285.2C139 283.3 153 299.7 167 308C181 316.3 195 316.7 208.8 303.8C222.7 291 236.3 265 250.2 259.5C264 254 278 269 292 269.3C306 269.7 320 255.3 334 251.8C348 248.3 362 255.7 375.8 266.8C389.7 278 403.3 293 417.2 291.3C431 289.7 445 271.3 459 258.7C473 246 487 239 501 243.8C515 248.7 529 265.3 542.8 283C556.7 300.7 570.3 319.3 584.2 321.8C598 324.3 612 310.7 626 308.7C640 306.7 654 316.3 668 318C682 319.7 696 313.3 709.8 314.5C723.7 315.7 737.3 324.3 751.2 321.8C765 319.3 779 305.7 793 305.3C807 305 821 318 835 323.5C849 329 863 327 876.8 316C890.7 305 904.3 285 918.2 274.7C932 264.3 946 263.7 953 263.3L960 263L960 541L953 541C946 541 932 541 918.2 541C904.3 541 890.7 541 876.8 541C863 541 849 541 835 541C821 541 807 541 793 541C779 541 765 541 751.2 541C737.3 541 723.7 541 709.8 541C696 541 682 541 668 541C654 541 640 541 626 541C612 541 598 541 584.2 541C570.3 541 556.7 541 542.8 541C529 541 515 541 501 541C487 541 473 541 459 541C445 541 431 541 417.2 541C403.3 541 389.7 541 375.8 541C362 541 348 541 334 541C320 541 306 541 292 541C278 541 264 541 250.2 541C236.3 541 222.7 541 208.8 541C195 541 181 541 167 541C153 541 139 541 125 541C111 541 97 541 83.2 541C69.3 541 55.7 541 41.8 541C28 541 14 541 7 541L0 541Z" fill="#384d5c"></path><path d="M0 315L7 315C14 315 28 315 41.8 324.8C55.7 334.7 69.3 354.3 83.2 357.7C97 361 111 348 125 336.7C139 325.3 153 315.7 167 312.7C181 309.7 195 313.3 208.8 316.8C222.7 320.3 236.3 323.7 250.2 323.8C264 324 278 321 292 314.8C306 308.7 320 299.3 334 311.7C348 324 362 358 375.8 364C389.7 370 403.3 348 417.2 347.5C431 347 445 368 459 364.2C473 360.3 487 331.7 501 316C515 300.3 529 297.7 542.8 297C556.7 296.3 570.3 297.7 584.2 307.3C598 317 612 335 626 338C640 341 654 329 668 319.5C682 310 696 303 709.8 301.3C723.7 299.7 737.3 303.3 751.2 301.5C765 299.7 779 292.3 793 296.2C807 300 821 315 835 331.7C849 348.3 863 366.7 876.8 368.2C890.7 369.7 904.3 354.3 918.2 341.5C932 328.7 946 318.3 953 313.2L960 308L960 541L953 541C946 541 932 541 918.2 541C904.3 541 890.7 541 876.8 541C863 541 849 541 835 541C821 541 807 541 793 541C779 541 765 541 751.2 541C737.3 541 723.7 541 709.8 541C696 541 682 541 668 541C654 541 640 541 626 541C612 541 598 541 584.2 541C570.3 541 556.7 541 542.8 541C529 541 515 541 501 541C487 541 473 541 459 541C445 541 431 541 417.2 541C403.3 541 389.7 541 375.8 541C362 541 348 541 334 541C320 541 306 541 292 541C278 541 264 541 250.2 541C236.3 541 222.7 541 208.8 541C195 541 181 541 167 541C153 541 139 541 125 541C111 541 97 541 83.2 541C69.3 541 55.7 541 41.8 541C28 541 14 541 7 541L0 541Z" fill="#425868"></path><path d="M0 364L7 376.7C14 389.3 28 414.7 41.8 426.7C55.7 438.7 69.3 437.3 83.2 437C97 436.7 111 437.3 125 434.7C139 432 153 426 167 415.2C181 404.3 195 388.7 208.8 387.2C222.7 385.7 236.3 398.3 250.2 397.8C264 397.3 278 383.7 292 382.2C306 380.7 320 391.3 334 398.7C348 406 362 410 375.8 415.5C389.7 421 403.3 428 417.2 428.3C431 428.7 445 422.3 459 411.8C473 401.3 487 386.7 501 379.7C515 372.7 529 373.3 542.8 378.8C556.7 384.3 570.3 394.7 584.2 394C598 393.3 612 381.7 626 379.7C640 377.7 654 385.3 668 393C682 400.7 696 408.3 709.8 411.7C723.7 415 737.3 414 751.2 411.8C765 409.7 779 406.3 793 398.8C807 391.3 821 379.7 835 385.5C849 391.3 863 414.7 876.8 424.5C890.7 434.3 904.3 430.7 918.2 431.7C932 432.7 946 438.3 953 441.2L960 444L960 541L953 541C946 541 932 541 918.2 541C904.3 541 890.7 541 876.8 541C863 541 849 541 835 541C821 541 807 541 793 541C779 541 765 541 751.2 541C737.3 541 723.7 541 709.8 541C696 541 682 541 668 541C654 541 640 541 626 541C612 541 598 541 584.2 541C570.3 541 556.7 541 542.8 541C529 541 515 541 501 541C487 541 473 541 459 541C445 541 431 541 417.2 541C403.3 541 389.7 541 375.8 541C362 541 348 541 334 541C320 541 306 541 292 541C278 541 264 541 250.2 541C236.3 541 222.7 541 208.8 541C195 541 181 541 167 541C153 541 139 541 125 541C111 541 97 541 83.2 541C69.3 541 55.7 541 41.8 541C28 541 14 541 7 541L0 541Z" fill="#526676"></path><path d="M0 436L7 438.2C14 440.3 28 444.7 41.8 454C55.7 463.3 69.3 477.7 83.2 483.7C97 489.7 111 487.3 125 483.8C139 480.3 153 475.7 167 467.5C181 459.3 195 447.7 208.8 441.3C222.7 435 236.3 434 250.2 436.8C264 439.7 278 446.3 292 454C306 461.7 320 470.3 334 477.7C348 485 362 491 375.8 491.2C389.7 491.3 403.3 485.7 417.2 484C431 482.3 445 484.7 459 481.8C473 479 487 471 501 472.8C515 474.7 529 486.3 542.8 482.2C556.7 478 570.3 458 584.2 451.5C598 445 612 452 626 457.5C640 463 654 467 668 464.2C682 461.3 696 451.7 709.8 451.2C723.7 450.7 737.3 459.3 751.2 460C765 460.7 779 453.3 793 453C807 452.7 821 459.3 835 466.8C849 474.3 863 482.7 876.8 486.8C890.7 491 904.3 491 918.2 486.8C932 482.7 946 474.3 953 470.2L960 466L960 541L953 541C946 541 932 541 918.2 541C904.3 541 890.7 541 876.8 541C863 541 849 541 835 541C821 541 807 541 793 541C779 541 765 541 751.2 541C737.3 541 723.7 541 709.8 541C696 541 682 541 668 541C654 541 640 541 626 541C612 541 598 541 584.2 541C570.3 541 556.7 541 542.8 541C529 541 515 541 501 541C487 541 473 541 459 541C445 541 431 541 417.2 541C403.3 541 389.7 541 375.8 541C362 541 348 541 334 541C320 541 306 541 292 541C278 541 264 541 250.2 541C236.3 541 222.7 541 208.8 541C195 541 181 541 167 541C153 541 139 541 125 541C111 541 97 541 83.2 541C69.3 541 55.7 541 41.8 541C28 541 14 541 7 541L0 541Z" fill="#617584"></path></svg>