<svg id="visual" viewBox="0 0 960 540" width="960" height="540" xmlns="http://www.w3.org/2000/svg" xmlns:xlink="http://www.w3.org/1999/xlink" version="1.1"><rect x="0" y="0" width="960" height="540" fill="#303841"></rect><path d="M0 37L22.8 40C45.7 43 91.3 49 137 112.2C182.7 175.3 228.3 295.7 274 331.8C319.7 368 365.3 320 411.2 284.5C457 249 503 226 548.8 214.5C594.7 203 640.3 203 686 238.5C731.7 274 777.3 345 823 355C868.7 365 914.3 314 937.2 288.5L960 263L960 541L937.2 541C914.3 541 868.7 541 823 541C777.3 541 731.7 541 686 541C640.3 541 594.7 541 548.8 541C503 541 457 541 411.2 541C365.3 541 319.7 541 274 541C228.3 541 182.7 541 137 541C91.3 541 45.7 541 22.8 541L0 541Z" fill="#3b5161"></path><path d="M0 201L22.8 221.5C45.7 242 91.3 283 137 324C182.7 365 228.3 406 274 416.3C319.7 426.7 365.3 406.3 411.2 398.2C457 390 503 394 548.8 354.2C594.7 314.3 640.3 230.7 686 230C731.7 229.3 777.3 311.7 823 297C868.7 282.3 914.3 170.7 937.2 114.8L960 59L960 541L937.2 541C914.3 541 868.7 541 823 541C777.3 541 731.7 541 686 541C640.3 541 594.7 541 548.8 541C503 541 457 541 411.2 541C365.3 541 319.7 541 274 541C228.3 541 182.7 541 137 541C91.3 541 45.7 541 22.8 541L0 541Z" fill="#305f72"></path><path d="M0 233L22.8 250.2C45.7 267.3 91.3 301.7 137 317.3C182.7 333 228.3 330 274 329C319.7 328 365.3 329 411.2 315.7C457 302.3 503 274.7 548.8 291.8C594.7 309 640.3 371 686 373.5C731.7 376 777.3 319 823 281.5C868.7 244 914.3 226 937.2 217L960 208L960 541L937.2 541C914.3 541 868.7 541 823 541C777.3 541 731.7 541 686 541C640.3 541 594.7 541 548.8 541C503 541 457 541 411.2 541C365.3 541 319.7 541 274 541C228.3 541 182.7 541 137 541C91.3 541 45.7 541 22.8 541L0 541Z" fill="#196d7e"></path><path d="M0 382L22.8 341.3C45.7 300.7 91.3 219.3 137 237.2C182.7 255 228.3 372 274 410.8C319.7 449.7 365.3 410.3 411.2 351.2C457 292 503 213 548.8 226C594.7 239 640.3 344 686 408.7C731.7 473.3 777.3 497.7 823 461C868.7 424.3 914.3 326.7 937.2 277.8L960 229L960 541L937.2 541C914.3 541 868.7 541 823 541C777.3 541 731.7 541 686 541C640.3 541 594.7 541 548.8 541C503 541 457 541 411.2 541C365.3 541 319.7 541 274 541C228.3 541 182.7 541 137 541C91.3 541 45.7 541 22.8 541L0 541Z" fill="#007c85"></path><path d="M0 506L22.8 467.7C45.7 429.3 91.3 352.7 137 336.3C182.7 320 228.3 364 274 373.8C319.7 383.7 365.3 359.3 411.2 327.3C457 295.3 503 255.7 548.8 287C594.7 318.3 640.3 420.7 686 446.3C731.7 472 777.3 421 823 396.3C868.7 371.7 914.3 373.3 937.2 374.2L960 375L960 541L937.2 541C914.3 541 868.7 541 823 541C777.3 541 731.7 541 686 541C640.3 541 594.7 541 548.8 541C503 541 457 541 411.2 541C365.3 541 319.7 541 274 541C228.3 541 182.7 541 137 541C91.3 541 45.7 541 22.8 541L0 541Z" fill="#008b86"></path><path d="M0 419L22.8 414.8C45.7 410.7 91.3 402.3 137 376.8C182.7 351.3 228.3 308.7 274 323.2C319.7 337.7 365.3 409.3 411.2 414.5C457 419.7 503 358.3 548.8 315.3C594.7 272.3 640.3 247.7 686 258.8C731.7 270 777.3 317 823 336.3C868.7 355.7 914.3 347.3 937.2 343.2L960 339L960 541L937.2 541C914.3 541 868.7 541 823 541C777.3 541 731.7 541 686 541C640.3 541 594.7 541 548.8 541C503 541 457 541 411.2 541C365.3 541 319.7 541 274 541C228.3 541 182.7 541 137 541C91.3 541 45.7 541 22.8 541L0 541Z" fill="#009881"></path><path d="M0 402L22.8 393.2C45.7 384.3 91.3 366.7 137 375.7C182.7 384.7 228.3 420.3 274 415.2C319.7 410 365.3 364 411.2 360.2C457 356.3 503 394.7 548.8 411.3C594.7 428 640.3 423 686 430C731.7 437 777.3 456 823 446C868.7 436 914.3 397 937.2 377.5L960 358L960 541L937.2 541C914.3 541 868.7 541 823 541C777.3 541 731.7 541 686 541C640.3 541 594.7 541 548.8 541C503 541 457 541 411.2 541C365.3 541 319.7 541 274 541C228.3 541 182.7 541 137 541C91.3 541 45.7 541 22.8 541L0 541Z" fill="#21a576"></path><path d="M0 385L22.8 390C45.7 395 91.3 405 137 410.3C182.7 415.7 228.3 416.3 274 424.3C319.7 432.3 365.3 447.7 411.2 430.7C457 413.7 503 364.3 548.8 337.3C594.7 310.3 640.3 305.7 686 342.2C731.7 378.7 777.3 456.3 823 493.5C868.7 530.7 914.3 527.3 937.2 525.7L960 524L960 541L937.2 541C914.3 541 868.7 541 823 541C777.3 541 731.7 541 686 541C640.3 541 594.7 541 548.8 541C503 541 457 541 411.2 541C365.3 541 319.7 541 274 541C228.3 541 182.7 541 137 541C91.3 541 45.7 541 22.8 541L0 541Z" fill="#4bb166"></path><path d="M0 518L22.8 517.3C45.7 516.7 91.3 515.3 137 514.3C182.7 513.3 228.3 512.7 274 514.8C319.7 517 365.3 522 411.2 525.7C457 529.3 503 531.7 548.8 532C594.7 532.3 640.3 530.7 686 522.8C731.7 515 777.3 501 823 481.3C868.7 461.7 914.3 436.3 937.2 423.7L960 411L960 541L937.2 541C914.3 541 868.7 541 823 541C777.3 541 731.7 541 686 541C640.3 541 594.7 541 548.8 541C503 541 457 541 411.2 541C365.3 541 319.7 541 274 541C228.3 541 182.7 541 137 541C91.3 541 45.7 541 22.8 541L0 541Z" fill="#72bb52"></path><path d="M0 388L22.8 394.8C45.7 401.7 91.3 415.3 137 414.5C182.7 413.7 228.3 398.3 274 408.3C319.7 418.3 365.3 453.7 411.2 456.7C457 459.7 503 430.3 548.8 411.2C594.7 392 640.3 383 686 390.2C731.7 397.3 777.3 420.7 823 431.3C868.7 442 914.3 440 937.2 439L960 438L960 541L937.2 541C914.3 541 868.7 541 823 541C777.3 541 731.7 541 686 541C640.3 541 594.7 541 548.8 541C503 541 457 541 411.2 541C365.3 541 319.7 541 274 541C228.3 541 182.7 541 137 541C91.3 541 45.7 541 22.8 541L0 541Z" fill="#9bc33c"></path><path d="M0 430L22.8 441.3C45.7 452.7 91.3 475.3 137 485.2C182.7 495 228.3 492 274 490C319.7 488 365.3 487 411.2 474.7C457 462.3 503 438.7 548.8 445.3C594.7 452 640.3 489 686 489.8C731.7 490.7 777.3 455.3 823 455.5C868.7 455.7 914.3 491.3 937.2 509.2L960 527L960 541L937.2 541C914.3 541 868.7 541 823 541C777.3 541 731.7 541 686 541C640.3 541 594.7 541 548.8 541C503 541 457 541 411.2 541C365.3 541 319.7 541 274 541C228.3 541 182.7 541 137 541C91.3 541 45.7 541 22.8 541L0 541Z" fill="#c7c823"></path><path d="M0 463L22.8 472.7C45.7 482.3 91.3 501.7 137 508.8C182.7 516 228.3 511 274 502.3C319.7 493.7 365.3 481.3 411.2 484.3C457 487.3 503 505.7 548.8 509C594.7 512.3 640.3 500.7 686 499.3C731.7 498 777.3 507 823 511.8C868.7 516.7 914.3 517.3 937.2 517.7L960 518L960 541L937.2 541C914.3 541 868.7 541 823 541C777.3 541 731.7 541 686 541C640.3 541 594.7 541 548.8 541C503 541 457 541 411.2 541C365.3 541 319.7 541 274 541C228.3 541 182.7 541 137 541C91.3 541 45.7 541 22.8 541L0 541Z" fill="#f6c90e"></path></svg>