<svg id="visual" viewBox="0 0 900 600" width="900" height="600" xmlns="http://www.w3.org/2000/svg" xmlns:xlink="http://www.w3.org/1999/xlink" version="1.1"><rect x="0" y="0" width="900" height="600" fill="#303841"></rect><path d="M0 341L15 338.7C30 336.3 60 331.7 90 317.5C120 303.3 150 279.7 180 289.3C210 299 240 342 270 353C300 364 330 343 360 326C390 309 420 296 450 305C480 314 510 345 540 347.3C570 349.7 600 323.3 630 326.3C660 329.3 690 361.7 720 369.2C750 376.7 780 359.3 810 356.2C840 353 870 364 885 369.5L900 375L900 601L885 601C870 601 840 601 810 601C780 601 750 601 720 601C690 601 660 601 630 601C600 601 570 601 540 601C510 601 480 601 450 601C420 601 390 601 360 601C330 601 300 601 270 601C240 601 210 601 180 601C150 601 120 601 90 601C60 601 30 601 15 601L0 601Z" fill="#3b5161"></path><path d="M0 397L15 402.3C30 407.7 60 418.3 90 413.3C120 408.3 150 387.7 180 391C210 394.3 240 421.7 270 428.5C300 435.3 330 421.7 360 417.3C390 413 420 418 450 408.2C480 398.3 510 373.7 540 360.8C570 348 600 347 630 348.5C660 350 690 354 720 352.7C750 351.3 780 344.7 810 359.5C840 374.3 870 410.7 885 428.8L900 447L900 601L885 601C870 601 840 601 810 601C780 601 750 601 720 601C690 601 660 601 630 601C600 601 570 601 540 601C510 601 480 601 450 601C420 601 390 601 360 601C330 601 300 601 270 601C240 601 210 601 180 601C150 601 120 601 90 601C60 601 30 601 15 601L0 601Z" fill="#008686"></path><path d="M0 440L15 440.8C30 441.7 60 443.3 90 441.8C120 440.3 150 435.7 180 434.7C210 433.7 240 436.3 270 439C300 441.7 330 444.3 360 452.5C390 460.7 420 474.3 450 479.8C480 485.3 510 482.7 540 481.8C570 481 600 482 630 484.5C660 487 690 491 720 477.2C750 463.3 780 431.7 810 432C840 432.3 870 464.7 885 480.8L900 497L900 601L885 601C870 601 840 601 810 601C780 601 750 601 720 601C690 601 660 601 630 601C600 601 570 601 540 601C510 601 480 601 450 601C420 601 390 601 360 601C330 601 300 601 270 601C240 601 210 601 180 601C150 601 120 601 90 601C60 601 30 601 15 601L0 601Z" fill="#58b560"></path><path d="M0 500L15 498C30 496 60 492 90 488.7C120 485.3 150 482.7 180 488.5C210 494.3 240 508.7 270 518.8C300 529 330 535 360 540.7C390 546.3 420 551.7 450 549C480 546.3 510 535.7 540 530.5C570 525.3 600 525.7 630 521.3C660 517 690 508 720 499.5C750 491 780 483 810 488.7C840 494.3 870 513.7 885 523.3L900 533L900 601L885 601C870 601 840 601 810 601C780 601 750 601 720 601C690 601 660 601 630 601C600 601 570 601 540 601C510 601 480 601 450 601C420 601 390 601 360 601C330 601 300 601 270 601C240 601 210 601 180 601C150 601 120 601 90 601C60 601 30 601 15 601L0 601Z" fill="#f6c90e"></path></svg>