<svg id="visual" viewBox="0 0 960 540" width="960" height="540" xmlns="http://www.w3.org/2000/svg" xmlns:xlink="http://www.w3.org/1999/xlink" version="1.1"><rect x="0" y="0" width="960" height="540" fill="#303841"></rect><defs><linearGradient id="grad1_0" x1="43.8%" y1="0%" x2="100%" y2="100%"><stop offset="14.444444444444446%" stop-color="#303841" stop-opacity="1"></stop><stop offset="85.55555555555554%" stop-color="#303841" stop-opacity="1"></stop></linearGradient></defs><defs><linearGradient id="grad2_0" x1="0%" y1="0%" x2="56.3%" y2="100%"><stop offset="14.444444444444446%" stop-color="#303841" stop-opacity="1"></stop><stop offset="85.55555555555554%" stop-color="#303841" stop-opacity="1"></stop></linearGradient></defs><g transform="translate(960, 0)"><path d="M0 189C-26.7 188.4 -53.4 187.8 -72.3 174.6C-91.3 161.5 -102.4 135.8 -116.7 116.7C-130.9 97.5 -148.2 84.9 -160.8 66.6C-173.3 48.2 -181.2 24.1 -189 0L0 0Z" fill="#f6c90e"></path></g><g transform="translate(0, 540)"><path d="M0 -189C22.6 -183.2 45.1 -177.4 70.4 -170C95.7 -162.6 123.8 -153.6 133.6 -133.6C143.5 -113.7 135.2 -82.7 141.4 -58.6C147.5 -34.4 168.3 -17.2 189 0L0 0Z" fill="#f6c90e"></path></g></svg>