<svg id="visual" viewBox="0 0 540 960" width="540" height="960" xmlns="http://www.w3.org/2000/svg" xmlns:xlink="http://www.w3.org/1999/xlink" version="1.1"><rect x="0" y="0" width="540" height="960" fill="#303841"></rect><defs><linearGradient id="grad1_0" x1="0%" y1="100%" x2="100%" y2="0%"><stop offset="30%" stop-color="#303841" stop-opacity="1"></stop><stop offset="70%" stop-color="#303841" stop-opacity="1"></stop></linearGradient></defs><defs><linearGradient id="grad2_0" x1="0%" y1="100%" x2="100%" y2="0%"><stop offset="30%" stop-color="#303841" stop-opacity="1"></stop><stop offset="70%" stop-color="#303841" stop-opacity="1"></stop></linearGradient></defs><g transform="translate(540, 960)"><path d="M-189 0C-188.4 -26.7 -187.8 -53.4 -174.6 -72.3C-161.5 -91.3 -135.8 -102.4 -116.7 -116.7C-97.5 -130.9 -84.9 -148.2 -66.6 -160.8C-48.2 -173.3 -24.1 -181.2 0 -189L0 0Z" fill="#f6c90e"></path></g><g transform="translate(0, 0)"><path d="M189 0C183.2 22.6 177.4 45.1 170 70.4C162.6 95.7 153.6 123.8 133.6 133.6C113.7 143.5 82.7 135.2 58.6 141.4C34.4 147.5 17.2 168.3 0 189L0 0Z" fill="#f6c90e"></path></g></svg>